<svg width="332" height="497" viewBox="0 0 332 497" fill="none" xmlns="http://www.w3.org/2000/svg">
<path d="M0 248.5H126.655C156.754 248.5 181.155 224.1 181.155 194V194C181.155 163.9 205.555 139.5 235.655 139.5H332" stroke="#00FFA9"/>
<path d="M0 248.5H127.155C156.978 248.5 181.155 224.323 181.155 194.5V72.5C181.155 32.7355 213.39 0.5 253.155 0.5H332" stroke="#00FFA9"/>
<path d="M0 248.5H127.155C156.978 248.5 181.155 272.677 181.155 302.5V424.5C181.155 464.264 213.39 496.5 253.155 496.5H332" stroke="#00FFA9"/>
<path d="M0 248.5L330.22 248.5" stroke="#00FFA9"/>
<path d="M0 248.5H126.655C156.754 248.5 181.155 272.9 181.155 303V303C181.155 333.1 205.555 357.5 235.655 357.5H332" stroke="#00FFA9"/>
</svg>
