<svg xmlns="http://www.w3.org/2000/svg" width="24" height="24" viewBox="0 0 24 24" fill="#f7f8fc" stroke="none"  >
<path d="M5.50426 23.8668C5.50426 24.4318 5.0562 24.8898 4.50348 24.8898H1.50116C0.948449 24.8898 0.500387 24.4318 0.500387 23.8668V9.54459C0.500387 8.97959 0.948449 8.52157 1.50116 8.52157H4.50348C5.0562 8.52157 5.50426 8.97959 5.50426 9.54459V23.8668ZM3.00232 6.47554C1.34419 6.47554 0 5.10149 0 3.4065C0 1.71152 1.34419 0.337463 3.00232 0.337463C4.66046 0.337463 6.00464 1.71152 6.00464 3.4065C6.00464 5.10149 4.66046 6.47554 3.00232 6.47554ZM24.519 23.8668C24.519 24.4318 24.0709 24.8898 23.5182 24.8898H20.5159C19.9632 24.8898 19.5151 24.4318 19.5151 23.8668V16.1942C19.5151 14.4992 18.1709 13.1251 16.5128 13.1251C14.8546 13.1251 13.5105 14.4992 13.5105 16.1942V23.8668C13.5105 24.4318 13.0624 24.8898 12.5097 24.8898H9.50735C8.95464 24.8898 8.50658 24.4318 8.50658 23.8668V9.54459C8.50658 8.97959 8.95464 8.52157 9.50735 8.52157H12.5097C13.0624 8.52157 13.5105 8.97959 13.5105 9.54459V10.7722C14.7279 8.87841 16.8671 7.82438 19.0748 8.03053C22.2324 8.42851 24.5839 11.2035 24.519 14.4551V23.8668Z" />
</svg>
