<?xml version="1.0" encoding="UTF-8"?><svg id="logo" xmlns="http://www.w3.org/2000/svg" xmlns:xlink="http://www.w3.org/1999/xlink" viewBox="0 0 100 90"><defs><style>.cls-1{fill:#fff;}.cls-2{fill:url(#Gradient_bez_nazwy_356-2);}.cls-3{fill:url(#Gradient_bez_nazwy_5);}.cls-4{fill:url(#Gradient_bez_nazwy_356);}.cls-5{fill:url(#Gradient_bez_nazwy_370);}</style><linearGradient id="Gradient_bez_nazwy_370" x1="62.52" y1=".17" x2="21.82" y2="70.67" gradientUnits="userSpaceOnUse"><stop offset="0" stop-color="#00ffa9"/><stop offset=".97" stop-color="#0d4d7f"/></linearGradient><linearGradient id="Gradient_bez_nazwy_5" x1="66.63" y1="2.55" x2="40.59" y2="47.65" gradientUnits="userSpaceOnUse"><stop offset="0" stop-color="#0d4d7f"/><stop offset=".14" stop-color="#0c5380" stop-opacity=".96"/><stop offset=".28" stop-color="#0b6584" stop-opacity=".86"/><stop offset=".42" stop-color="#08848c" stop-opacity=".69"/><stop offset=".57" stop-color="#05af96" stop-opacity=".45"/><stop offset=".72" stop-color="#01e6a3" stop-opacity=".14"/><stop offset=".78" stop-color="#00ffa9" stop-opacity="0"/></linearGradient><linearGradient id="Gradient_bez_nazwy_356" x1="49.45" y1="3.2" x2="86.38" y2="67.17" gradientUnits="userSpaceOnUse"><stop offset="0" stop-color="#0d4dff"/><stop offset="1" stop-color="#00ffa9"/></linearGradient><linearGradient id="Gradient_bez_nazwy_356-2" x1="3.24" y1="65.14" x2="55.1" y2="65.14" xlink:href="#Gradient_bez_nazwy_356"/></defs><g><path class="cls-5" d="M46.41,83.54c-1.5,0-2.99-.39-4.36-1.18L7.57,62.37c-2.54-1.47-4.16-4.11-4.32-7.05-.16-2.94,1.16-5.73,3.53-7.47l15.6-11.47c1.99-1.46,3.13-3.71,3.13-6.18,0-2.46-1.14-4.72-3.12-6.18L2.03,9.03C-.19,7.39-.66,4.26,.98,2.03,2.61-.19,5.74-.66,7.97,.98L28.32,15.97c4.57,3.37,7.19,8.56,7.19,14.24s-2.63,10.87-7.2,14.23l-13.99,10.29,30.78,17.83V13.51C45.1,6.06,51.15,0,58.6,0c3.71,0,7.3,1.55,9.84,4.26l21.73,23.12c7.6,8.09,7.54,20.7-.14,28.71l-18.77,19.58c-1.91,1.99-5.08,2.06-7.07,.15s-2.06-5.08-.15-7.07l18.77-19.58c4-4.17,4.03-10.73,.07-14.94L61.16,11.11c-.66-.7-1.59-1.11-2.56-1.11-1.93,0-3.51,1.57-3.51,3.51v61.32c0,3.14-1.63,5.96-4.35,7.53-1.36,.78-2.85,1.17-4.34,1.17Z"/><path class="cls-3" d="M55.09,52.52V13.51c0-1.94,1.57-3.51,3.51-3.51,.96,0,1.9,.4,2.56,1.11l7.29-6.85C65.9,1.55,62.31,0,58.6,0,51.15,0,45.09,6.06,45.09,13.51V50.25"/><path class="cls-4" d="M47.19,6.28C50.59,.95,57.62-1.86,64.77,1.38c1.22,.55,2.28,1.39,3.2,2.37l22.21,23.63c7.6,8.09,7.54,20.7-.14,28.71l-18.77,19.58c-2.88,3.01-8.62,1.63-8.88-4.31-.02-.52,.16-1.04,.52-1.42l19.91-20.76c4-4.17,4.03-10.73,.07-14.94L61.16,11.11l-.19-.18c-2.99-2.84-6.87-4.54-10.95-4.83-.94-.07-1.9,0-2.83,.18h0Z"/><path class="cls-2" d="M6.78,47.81c-2.87,2.11-4.19,5.75-3.23,9.32,.61,2.25,2.16,4.12,4.18,5.28l34.33,19.89c1.36,.79,2.86,1.18,4.36,1.18s2.97-.39,4.33-1.17c2.77-1.59,4.36-4.67,4.36-7.86v-.81s0,0,0,0c-1.86,1.37-4.33,1.61-6.41,.6l-3.59-1.73L14.32,54.68l-3.57-2.42c-1.79-1.21-2.71-3.34-2.37-5.47h0s-1.59,1.02-1.59,1.02Z"/></g></svg>