<svg width="33" height="33" viewBox="0 0 33 33" fill="none" xmlns="http://www.w3.org/2000/svg">
<path fill-rule="evenodd" clip-rule="evenodd" d="M11.1023 6.13024C10.7954 5.82334 10.7954 5.32576 11.1023 5.01887L15.7907 0.330515C16.0976 0.0236173 16.5952 0.0236172 16.9021 0.330515L21.5904 5.01887C21.8973 5.32576 21.8973 5.82334 21.5904 6.13024C21.2835 6.43714 20.7859 6.43714 20.479 6.13024L17.3136 2.9648V18.1412L30.6327 29.1028V24.6043C30.6327 24.1703 30.9846 23.8184 31.4186 23.8184C31.8526 23.8184 32.2045 24.1703 32.2045 24.6043V31.2346C32.2045 31.6686 31.8526 32.0205 31.4186 32.0205H24.7883C24.3542 32.0205 24.0024 31.6686 24.0024 31.2346C24.0024 30.8006 24.3542 30.4487 24.7883 30.4487H29.1208L16.3464 19.9354L3.57212 30.4487H7.81219C8.24621 30.4487 8.59805 30.8005 8.59805 31.2345C8.59805 31.6686 8.24621 32.0204 7.81219 32.0204H1.18186C0.747838 32.0204 0.395996 31.6686 0.395996 31.2345L0.395997 24.6042C0.395997 24.1702 0.747839 23.8183 1.18186 23.8183C1.61588 23.8183 1.96772 24.1702 1.96772 24.6042L1.96772 29.1789L15.3136 18.1952V3.03036L12.2137 6.13024C11.9068 6.43714 11.4092 6.43714 11.1023 6.13024Z" fill="url(#paint0_linear_406_2032)"/>
<defs>
<linearGradient id="paint0_linear_406_2032" x1="3.7076" y1="25.0371" x2="26.3053" y2="5.32267" gradientUnits="userSpaceOnUse">
<stop stop-color="#0D4DFF"/>
<stop offset="0.04" stop-color="#0B5AF8"/>
<stop offset="0.22" stop-color="#088CE0"/>
<stop offset="0.39" stop-color="#05B5CC"/>
<stop offset="0.56" stop-color="#03D5BC"/>
<stop offset="0.72" stop-color="#01ECB1"/>
<stop offset="0.87" stop-color="#00FAAB"/>
<stop offset="1" stop-color="#00FFA9"/>
</linearGradient>
</defs>
</svg>
