<svg width="37" height="42" viewBox="0 0 37 42" fill="none" xmlns="http://www.w3.org/2000/svg">
<path fill-rule="evenodd" clip-rule="evenodd" d="M18.3961 7.52051C19.7769 7.52051 20.8961 6.40122 20.8961 5.02051C20.8961 3.6398 19.7769 2.52051 18.3961 2.52051C17.0154 2.52051 15.8961 3.6398 15.8961 5.02051C15.8961 6.40122 17.0154 7.52051 18.3961 7.52051ZM18.3961 9.52051C19.6998 9.52051 20.874 8.96614 21.6958 8.08028L27.9529 11.6928L27.9529 11.6928C27.5966 12.8474 27.7036 14.1414 28.3555 15.2704C29.0073 16.3994 30.0745 17.1391 31.2526 17.4079V24.6329C30.0745 24.9017 29.0073 25.6414 28.3555 26.7704C27.7036 27.8995 27.5966 29.1937 27.953 30.3484L27.9529 30.3482L21.6958 33.9607C20.874 33.0749 19.6998 32.5205 18.3961 32.5205C17.0925 32.5205 15.9183 33.0749 15.0965 33.9607L8.83935 30.3482C9.19563 29.1935 9.08864 27.8994 8.43679 26.7704C7.78497 25.6414 6.71781 24.9017 5.53974 24.6329V17.4079C6.7178 17.1391 7.78497 16.3994 8.43679 15.2704C9.08861 14.1414 9.19562 12.8474 8.8394 11.6928L15.0965 8.08028C15.9183 8.96614 17.0925 9.52051 18.3961 9.52051ZM7.8405 9.96011L14.0954 6.34884C13.9659 5.92898 13.8961 5.48289 13.8961 5.02051C13.8961 2.53523 15.9109 0.520508 18.3961 0.520508C20.8814 0.520508 22.8961 2.53523 22.8961 5.02051C22.8961 5.48289 22.8264 5.92898 22.6969 6.34884L28.9518 9.9601C29.2506 9.63796 29.6021 9.3545 30.0026 9.12329C32.1549 7.88065 34.907 8.61809 36.1497 10.7704C37.3923 12.9227 36.6549 15.6749 34.5026 16.9175C34.1021 17.1487 33.6809 17.3114 33.2526 17.4091V24.6317C33.6809 24.7294 34.1021 24.8921 34.5026 25.1233C36.6549 26.3659 37.3923 29.1181 36.1497 31.2704C34.907 33.4227 32.1549 34.1602 30.0026 32.9175C29.6022 32.6863 29.2507 32.4029 28.9519 32.0808L22.6969 35.6922C22.8264 36.112 22.8961 36.5581 22.8961 37.0205C22.8961 39.5058 20.8814 41.5205 18.3961 41.5205C15.9109 41.5205 13.8961 39.5058 13.8961 37.0205C13.8961 36.5581 13.9659 36.112 14.0954 35.6922L7.84037 32.0808C7.54154 32.4029 7.19009 32.6863 6.78968 32.9175C4.63736 34.1602 1.8852 33.4227 0.642564 31.2704C-0.600076 29.1181 0.137362 26.3659 2.28968 25.1233C2.69013 24.8921 3.11134 24.7294 3.53974 24.6317V17.4091C3.11134 17.3114 2.69013 17.1487 2.28968 16.9175C0.137362 15.6749 -0.600076 12.9227 0.642565 10.7704C1.88521 8.61809 4.63736 7.88065 6.78968 9.12329C7.19015 9.3545 7.54163 9.63797 7.8405 9.96011ZM27.9667 30.3923C27.9621 30.3777 27.9575 30.3631 27.953 30.3484L27.9667 30.3923ZM18.3961 39.5205C19.7769 39.5205 20.8961 38.4012 20.8961 37.0205C20.8961 35.6398 19.7769 34.5205 18.3961 34.5205C17.0154 34.5205 15.8961 35.6398 15.8961 37.0205C15.8961 38.4012 17.0154 39.5205 18.3961 39.5205ZM33.5026 15.1855C32.3068 15.8758 30.7779 15.4661 30.0875 14.2704C29.3972 13.0747 29.8068 11.5457 31.0026 10.8553C32.1983 10.165 33.7273 10.5747 34.4176 11.7704C35.108 12.9661 34.6983 14.4951 33.5026 15.1855ZM2.37461 30.2704C3.06497 31.4661 4.59395 31.8758 5.78968 31.1855C6.98541 30.4951 7.3951 28.9661 6.70474 27.7704C6.01439 26.5747 4.48541 26.165 3.28968 26.8553C2.09395 27.5457 1.68426 29.0747 2.37461 30.2704ZM31.0026 31.1855C29.8068 30.4951 29.3972 28.9661 30.0875 27.7704C30.7779 26.5747 32.3068 26.165 33.5026 26.8553C34.6983 27.5457 35.108 29.0747 34.4176 30.2704C33.7273 31.4661 32.1983 31.8758 31.0026 31.1855ZM3.28968 15.1855C2.09395 14.4951 1.68426 12.9661 2.37462 11.7704C3.06497 10.5747 4.59395 10.165 5.78968 10.8553C6.98541 11.5457 7.3951 13.0747 6.70474 14.2704C6.01439 15.4661 4.48541 15.8758 3.28968 15.1855Z" fill="url(#paint0_linear_406_2100)"/>
<defs>
<linearGradient id="paint0_linear_406_2100" x1="3.86131" y1="32.5507" x2="32.311" y2="10.2472" gradientUnits="userSpaceOnUse">
<stop stop-color="#0D4DFF"/>
<stop offset="0.04" stop-color="#0B5AF8"/>
<stop offset="0.22" stop-color="#088CE0"/>
<stop offset="0.39" stop-color="#05B5CC"/>
<stop offset="0.56" stop-color="#03D5BC"/>
<stop offset="0.72" stop-color="#01ECB1"/>
<stop offset="0.87" stop-color="#00FAAB"/>
<stop offset="1" stop-color="#00FFA9"/>
</linearGradient>
</defs>
</svg>
