<svg width="47" height="33" viewBox="0 0 47 33" fill="none" xmlns="http://www.w3.org/2000/svg">
<path d="M10.0346 22.5039V21.505L11.0334 21.5039C11.3537 21.5035 11.6607 21.3761 11.8872 21.1497C12.1136 20.9233 12.241 20.6164 12.2415 20.2963V13.6769C12.2407 13.0643 11.9969 12.4769 11.5637 12.0437C11.1305 11.6105 10.5432 11.3668 9.93051 11.366H3.31102C2.69838 11.3668 2.11104 11.6105 1.67782 12.0437C1.24467 12.4769 1.00095 13.0641 1.00008 13.6767C1.00008 13.6769 1.00008 13.6772 1.00008 13.6774V20.2959C1.00008 20.2961 1.00008 20.2963 1.00008 20.2965C1.00062 20.6166 1.12799 20.9234 1.35431 21.1497C1.58078 21.3761 1.88784 21.5035 2.20812 21.5039L3.20697 21.505V22.5039L3.20697 30.2269C3.20697 30.2271 3.20697 30.2273 3.20697 30.2276C3.20752 30.5476 3.33489 30.8544 3.56121 31.0807C3.78768 31.3072 4.09474 31.4346 4.41502 31.4349H8.82651C9.1468 31.4346 9.45385 31.3072 9.68032 31.0807C9.90667 30.8544 10.0341 30.5475 10.0346 30.2274V22.5039Z" stroke="url(#paint0_linear_406_2133)" stroke-width="2"/>
<path d="M10.0344 4.84832C10.0343 4.17332 9.83411 3.5135 9.4591 2.95225C9.08398 2.39086 8.55082 1.9533 7.92703 1.69492C7.30324 1.43654 6.61684 1.36893 5.95463 1.50066C5.29242 1.63238 4.68414 1.95751 4.20672 2.43494C3.72929 2.91237 3.40415 3.52065 3.27243 4.18286C3.14071 4.84507 3.20831 5.53147 3.4667 6.15526C3.72508 6.77904 4.16263 7.31221 4.72403 7.68732C5.28526 8.06232 5.94507 8.26253 6.62005 8.26265C7.52526 8.26157 8.3931 7.9015 9.03319 7.26141C9.67327 6.62134 10.0333 5.75352 10.0344 4.84832Z" stroke="url(#paint1_linear_406_2133)" stroke-width="2"/>
<path d="M27.2758 22.5039V21.505L28.2746 21.5039C28.5949 21.5035 28.902 21.3761 29.1284 21.1497C29.3548 20.9233 29.4822 20.6164 29.4827 20.2963V13.6769C29.4819 13.0643 29.2381 12.4769 28.8049 12.0437C28.3717 11.6105 27.7844 11.3668 27.1717 11.366H20.5522C19.9396 11.3668 19.3523 11.6105 18.919 12.0437C18.4859 12.4769 18.2422 13.0641 18.2413 13.6767C18.2413 13.6769 18.2413 13.6772 18.2413 13.6774V20.2959C18.2413 20.2961 18.2413 20.2963 18.2413 20.2965C18.2418 20.6166 18.3692 20.9234 18.5955 21.1497C18.822 21.3761 19.1291 21.5035 19.4493 21.5039L20.4482 21.505V22.5039L20.4482 30.2269C20.4482 30.2271 20.4482 30.2273 20.4482 30.2276C20.4487 30.5476 20.5761 30.8544 20.8024 31.0807C21.0289 31.3072 21.3359 31.4346 21.6562 31.4349H26.0677C26.388 31.4346 26.6951 31.3072 26.9215 31.0807C27.1479 30.8544 27.2753 30.5475 27.2758 30.2274V22.5039Z" stroke="url(#paint2_linear_406_2133)" stroke-width="2"/>
<path d="M27.2756 4.84832C27.2755 4.17332 27.0753 3.5135 26.7003 2.95225C26.3252 2.39086 25.792 1.9533 25.1682 1.69492C24.5445 1.43654 23.8581 1.36893 23.1958 1.50066C22.5336 1.63238 21.9254 1.95751 21.4479 2.43494C20.9705 2.91237 20.6454 3.52065 20.5136 4.18286C20.3819 4.84507 20.4495 5.53147 20.7079 6.15526C20.9663 6.77904 21.4038 7.31221 21.9652 7.68732C22.5265 8.06232 23.1863 8.26253 23.8613 8.26265C24.7665 8.26157 25.6343 7.9015 26.2744 7.26141C26.9145 6.62134 27.2745 5.75352 27.2756 4.84832Z" stroke="url(#paint3_linear_406_2133)" stroke-width="2"/>
<path d="M41.1427 11.5451V20.7251H38.8387V11.5451H41.1427ZM35.4007 15.0911H44.5807V17.1971H35.4007V15.0911Z" fill="url(#paint4_linear_406_2133)"/>
<defs>
<linearGradient id="paint0_linear_406_2133" x1="11.8629" y1="27.6068" x2="-1.12129" y2="20.7864" gradientUnits="userSpaceOnUse">
<stop stop-color="#0D4DFF"/>
<stop offset="0.04" stop-color="#0B5AF8"/>
<stop offset="0.22" stop-color="#088CE0"/>
<stop offset="0.39" stop-color="#05B5CC"/>
<stop offset="0.56" stop-color="#03D5BC"/>
<stop offset="0.72" stop-color="#01ECB1"/>
<stop offset="0.87" stop-color="#00FAAB"/>
<stop offset="1" stop-color="#00FFA9"/>
</linearGradient>
<linearGradient id="paint1_linear_406_2133" x1="10.1154" y1="7.33139" x2="3.86299" y2="1.8576" gradientUnits="userSpaceOnUse">
<stop stop-color="#0D4DFF"/>
<stop offset="0.04" stop-color="#0B5AF8"/>
<stop offset="0.22" stop-color="#088CE0"/>
<stop offset="0.39" stop-color="#05B5CC"/>
<stop offset="0.56" stop-color="#03D5BC"/>
<stop offset="0.72" stop-color="#01ECB1"/>
<stop offset="0.87" stop-color="#00FAAB"/>
<stop offset="1" stop-color="#00FFA9"/>
</linearGradient>
<linearGradient id="paint2_linear_406_2133" x1="29.1041" y1="27.6068" x2="16.1199" y2="20.7864" gradientUnits="userSpaceOnUse">
<stop stop-color="#0D4DFF"/>
<stop offset="0.04" stop-color="#0B5AF8"/>
<stop offset="0.22" stop-color="#088CE0"/>
<stop offset="0.39" stop-color="#05B5CC"/>
<stop offset="0.56" stop-color="#03D5BC"/>
<stop offset="0.72" stop-color="#01ECB1"/>
<stop offset="0.87" stop-color="#00FAAB"/>
<stop offset="1" stop-color="#00FFA9"/>
</linearGradient>
<linearGradient id="paint3_linear_406_2133" x1="27.3566" y1="7.33139" x2="21.1042" y2="1.8576" gradientUnits="userSpaceOnUse">
<stop stop-color="#0D4DFF"/>
<stop offset="0.04" stop-color="#0B5AF8"/>
<stop offset="0.22" stop-color="#088CE0"/>
<stop offset="0.39" stop-color="#05B5CC"/>
<stop offset="0.56" stop-color="#03D5BC"/>
<stop offset="0.72" stop-color="#01ECB1"/>
<stop offset="0.87" stop-color="#00FAAB"/>
<stop offset="1" stop-color="#00FFA9"/>
</linearGradient>
<linearGradient id="paint4_linear_406_2133" x1="35.732" y1="22.622" x2="47.9578" y2="16.7838" gradientUnits="userSpaceOnUse">
<stop stop-color="#0D4DFF"/>
<stop offset="0.04" stop-color="#0B5AF8"/>
<stop offset="0.22" stop-color="#088CE0"/>
<stop offset="0.39" stop-color="#05B5CC"/>
<stop offset="0.56" stop-color="#03D5BC"/>
<stop offset="0.72" stop-color="#01ECB1"/>
<stop offset="0.87" stop-color="#00FAAB"/>
<stop offset="1" stop-color="#00FFA9"/>
</linearGradient>
</defs>
</svg>
